<svg width="262" height="61" viewBox="0 0 262 61" fill="none" xmlns="http://www.w3.org/2000/svg">
<rect width="262" height="61" rx="8" fill="#6B21A8"/>
<path d="M20.08 24.856H25.52V38.808C25.2853 38.872 24.944 38.936 24.496 39C24.048 39.064 23.568 39.096 23.056 39.096C22.1387 39.096 21.4133 38.8293 20.88 38.296C20.3467 37.7627 20.08 37.0373 20.08 36.12V24.856ZM25.52 33.848H20.08V22.584C20.08 21.6667 20.3467 20.9413 20.88 20.408C21.4133 19.8747 22.1387 19.608 23.056 19.608C23.568 19.608 24.048 19.64 24.496 19.704C24.944 19.768 25.2853 19.832 25.52 19.896V33.848ZM23.056 31.32V26.968H32.72C32.8693 27.2027 32.9973 27.5013 33.104 27.864C33.232 28.2267 33.296 28.632 33.296 29.08C33.296 29.8693 33.1253 30.4453 32.784 30.808C32.4427 31.1493 31.9733 31.32 31.376 31.32H23.056ZM23.056 39.096V34.68H33.744C33.8933 34.9147 34.0213 35.224 34.128 35.608C34.256 35.992 34.32 36.408 34.32 36.856C34.32 37.6453 34.1493 38.2213 33.808 38.584C33.4667 38.9253 32.9973 39.096 32.4 39.096H23.056ZM23.056 23.992V19.608H33.616C33.7653 19.8427 33.8933 20.1413 34 20.504C34.128 20.8667 34.192 21.272 34.192 21.72C34.192 22.5093 34.0213 23.0853 33.68 23.448C33.3387 23.8107 32.8693 23.992 32.272 23.992H23.056ZM45.4945 27.256C44.4278 27.256 43.4998 27.5973 42.7105 28.28C41.9425 28.9627 41.5585 29.9653 41.5585 31.288C41.5585 32.6107 41.9318 33.592 42.6785 34.232C43.4252 34.872 44.3532 35.192 45.4625 35.192C46.1025 35.192 46.6678 35.1173 47.1585 34.968C47.6705 34.7973 48.0972 34.6267 48.4385 34.456C48.8438 34.7547 49.1425 35.0747 49.3345 35.416C49.5478 35.7573 49.6545 36.1733 49.6545 36.664C49.6545 37.5173 49.2278 38.2 48.3745 38.712C47.5425 39.224 46.3478 39.48 44.7905 39.48C43.0198 39.48 41.4732 39.1707 40.1505 38.552C38.8492 37.9333 37.8358 37.016 37.1105 35.8C36.4065 34.5627 36.0545 33.0587 36.0545 31.288C36.0545 29.4107 36.4492 27.864 37.2385 26.648C38.0278 25.4107 39.0732 24.4933 40.3745 23.896C41.6758 23.2773 43.0945 22.968 44.6305 22.968C46.1452 22.968 47.3185 23.2453 48.1505 23.8C49.0038 24.3547 49.4305 25.0693 49.4305 25.944C49.4305 26.3493 49.3345 26.7333 49.1425 27.096C48.9505 27.4373 48.7265 27.736 48.4705 27.992C48.1078 27.8213 47.6705 27.6613 47.1585 27.512C46.6465 27.3413 46.0918 27.256 45.4945 27.256ZM68.01 31.224C68.01 32.9307 67.658 34.4027 66.954 35.64C66.2713 36.8773 65.3007 37.8373 64.042 38.52C62.8047 39.1813 61.3327 39.512 59.626 39.512C57.9407 39.512 56.4687 39.1813 55.21 38.52C53.9513 37.8587 52.97 36.9093 52.266 35.672C51.5833 34.4347 51.242 32.952 51.242 31.224C51.242 29.5387 51.594 28.0773 52.298 26.84C53.002 25.6027 53.9833 24.6533 55.242 23.992C56.5007 23.3093 57.962 22.968 59.626 22.968C61.3113 22.968 62.7727 23.3093 64.01 23.992C65.2687 24.6747 66.25 25.6347 66.954 26.872C67.658 28.1093 68.01 29.56 68.01 31.224ZM59.626 27.224C58.7513 27.224 58.058 27.576 57.546 28.28C57.0553 28.9627 56.81 29.944 56.81 31.224C56.81 32.5467 57.0553 33.5493 57.546 34.232C58.0367 34.9147 58.73 35.256 59.626 35.256C60.522 35.256 61.2153 34.9147 61.706 34.232C62.1967 33.528 62.442 32.5253 62.442 31.224C62.442 29.9653 62.186 28.984 61.674 28.28C61.1833 27.576 60.5007 27.224 59.626 27.224ZM87.0223 34.808V25.528H92.4303V35.576C92.4303 36.1093 92.3129 36.568 92.0783 36.952C91.8649 37.336 91.5129 37.6773 91.0223 37.976C90.4036 38.3813 89.6036 38.7333 88.6223 39.032C87.6409 39.352 86.5209 39.512 85.2623 39.512C83.4063 39.512 81.8169 39.2027 80.4943 38.584C79.1716 37.9653 78.1583 37.048 77.4543 35.832C76.7503 34.5947 76.3983 33.08 76.3983 31.288C76.3983 29.4107 76.7609 27.864 77.4863 26.648C78.2116 25.4107 79.1929 24.4933 80.4303 23.896C81.6889 23.2773 83.0863 22.968 84.6223 22.968C85.3689 22.968 86.0196 23.0427 86.5743 23.192C87.1289 23.3413 87.5876 23.512 87.9503 23.704V28.12C87.6729 27.9067 87.3103 27.704 86.8623 27.512C86.4356 27.32 85.9449 27.224 85.3903 27.224C84.6649 27.224 84.0356 27.3733 83.5023 27.672C82.9903 27.9707 82.5956 28.4187 82.3183 29.016C82.0409 29.6133 81.9023 30.3707 81.9023 31.288C81.9023 32.632 82.1903 33.624 82.7663 34.264C83.3636 34.904 84.1849 35.224 85.2303 35.224C85.6143 35.224 85.9663 35.1813 86.2863 35.096C86.6063 34.9893 86.8516 34.8933 87.0223 34.808ZM92.4303 26.552H86.9903V18.136C87.2249 18.072 87.5556 18.008 87.9823 17.944C88.4303 17.88 88.9103 17.848 89.4223 17.848C90.4889 17.848 91.2569 18.0293 91.7263 18.392C92.1956 18.7333 92.4303 19.4053 92.4303 20.408V26.552ZM98.4443 33.656L98.2523 30.072L105.644 28.856C105.602 28.4293 105.388 28.0027 105.004 27.576C104.62 27.1493 104.023 26.936 103.212 26.936C102.359 26.936 101.644 27.2133 101.068 27.768C100.514 28.3227 100.215 29.112 100.172 30.136L100.364 32.824C100.578 33.8053 101.058 34.488 101.804 34.872C102.572 35.256 103.426 35.448 104.364 35.448C105.26 35.448 106.114 35.3307 106.924 35.096C107.735 34.8613 108.386 34.6053 108.876 34.328C109.218 34.5413 109.506 34.84 109.74 35.224C109.975 35.608 110.092 36.0133 110.092 36.44C110.092 37.144 109.826 37.7307 109.292 38.2C108.78 38.648 108.066 38.9787 107.148 39.192C106.231 39.4053 105.175 39.512 103.98 39.512C102.316 39.512 100.812 39.2027 99.4683 38.584C98.1456 37.944 97.0896 36.9947 96.3003 35.736C95.5323 34.4773 95.1483 32.8987 95.1483 31C95.1483 29.592 95.3723 28.376 95.8203 27.352C96.2896 26.328 96.9083 25.496 97.6763 24.856C98.4443 24.216 99.2976 23.7467 100.236 23.448C101.196 23.128 102.178 22.968 103.18 22.968C104.695 22.968 106.018 23.2667 107.148 23.864C108.279 24.44 109.164 25.24 109.804 26.264C110.444 27.2667 110.764 28.4293 110.764 29.752C110.764 30.4773 110.562 31.032 110.156 31.416C109.751 31.8 109.186 32.0453 108.46 32.152L98.4443 33.656ZM127.821 39.48C129.357 39.48 130.722 39.16 131.917 38.52C133.133 37.88 134.093 36.9413 134.797 35.704C135.501 34.4667 135.853 32.9413 135.853 31.128C135.853 29.2293 135.49 27.6827 134.765 26.488C134.04 25.272 133.026 24.3867 131.725 23.832C130.424 23.256 128.909 22.968 127.181 22.968C125.922 22.968 124.77 23.1067 123.725 23.384C122.68 23.64 121.826 23.9813 121.165 24.408C120.738 24.6853 120.397 25.016 120.141 25.4C119.906 25.784 119.789 26.264 119.789 26.84V37.24H125.197V27.704C125.432 27.576 125.72 27.4693 126.061 27.384C126.402 27.2773 126.776 27.224 127.181 27.224C127.864 27.224 128.429 27.3627 128.877 27.64C129.346 27.9173 129.698 28.344 129.933 28.92C130.168 29.4747 130.285 30.2107 130.285 31.128C130.285 32.4507 129.997 33.464 129.421 34.168C128.866 34.8507 128.056 35.192 126.989 35.192C126.392 35.192 125.858 35.0747 125.389 34.84C124.92 34.6053 124.504 34.3493 124.141 34.072V38.616C124.653 38.8507 125.197 39.0533 125.773 39.224C126.37 39.3947 127.053 39.48 127.821 39.48ZM125.229 35.928H119.789V42.424C119.789 43.4053 120.024 44.0773 120.493 44.44C120.984 44.8027 121.752 44.984 122.797 44.984C123.309 44.984 123.778 44.952 124.205 44.888C124.653 44.824 124.994 44.76 125.229 44.696V35.928ZM145.226 35.544C145.589 35.544 145.984 35.512 146.41 35.448C146.858 35.3627 147.189 35.256 147.402 35.128V32.568L145.098 32.76C144.501 32.8027 144.01 32.9307 143.626 33.144C143.242 33.3573 143.05 33.6773 143.05 34.104C143.05 34.5307 143.21 34.8827 143.53 35.16C143.872 35.416 144.437 35.544 145.226 35.544ZM144.97 22.968C147.296 22.968 149.152 23.448 150.538 24.408C151.946 25.3467 152.65 26.8187 152.65 28.824V35.992C152.65 36.5467 152.49 37.0053 152.17 37.368C151.872 37.7093 151.509 38.008 151.082 38.264C150.4 38.6693 149.568 38.9787 148.586 39.192C147.605 39.4053 146.485 39.512 145.226 39.512C142.986 39.512 141.184 39.0853 139.818 38.232C138.474 37.3573 137.802 36.0453 137.802 34.296C137.802 32.824 138.24 31.6933 139.114 30.904C140.01 30.1147 141.365 29.624 143.178 29.432L147.37 28.984V28.76C147.37 28.1413 147.093 27.704 146.538 27.448C146.005 27.1707 145.226 27.032 144.202 27.032C143.413 27.032 142.624 27.1173 141.834 27.288C141.066 27.4587 140.373 27.672 139.754 27.928C139.477 27.736 139.242 27.448 139.05 27.064C138.858 26.6587 138.762 26.2427 138.762 25.816C138.762 24.792 139.306 24.0667 140.394 23.64C141.013 23.4053 141.738 23.2347 142.57 23.128C143.424 23.0213 144.224 22.968 144.97 22.968ZM156.137 30.552H161.577V38.968C161.342 39.032 161.001 39.096 160.553 39.16C160.126 39.224 159.657 39.256 159.145 39.256C158.099 39.256 157.331 39.0747 156.841 38.712C156.371 38.3493 156.137 37.6773 156.137 36.696V30.552ZM161.577 33.4H156.137V18.136C156.371 18.072 156.702 18.008 157.129 17.944C157.577 17.88 158.057 17.848 158.569 17.848C159.635 17.848 160.403 18.0293 160.873 18.392C161.342 18.7333 161.577 19.4053 161.577 20.408V33.4ZM171.726 35.544C172.089 35.544 172.484 35.512 172.91 35.448C173.358 35.3627 173.689 35.256 173.902 35.128V32.568L171.598 32.76C171.001 32.8027 170.51 32.9307 170.126 33.144C169.742 33.3573 169.55 33.6773 169.55 34.104C169.55 34.5307 169.71 34.8827 170.03 35.16C170.372 35.416 170.937 35.544 171.726 35.544ZM171.47 22.968C173.796 22.968 175.652 23.448 177.038 24.408C178.446 25.3467 179.15 26.8187 179.15 28.824V35.992C179.15 36.5467 178.99 37.0053 178.67 37.368C178.372 37.7093 178.009 38.008 177.582 38.264C176.9 38.6693 176.068 38.9787 175.086 39.192C174.105 39.4053 172.985 39.512 171.726 39.512C169.486 39.512 167.684 39.0853 166.318 38.232C164.974 37.3573 164.302 36.0453 164.302 34.296C164.302 32.824 164.74 31.6933 165.614 30.904C166.51 30.1147 167.865 29.624 169.678 29.432L173.87 28.984V28.76C173.87 28.1413 173.593 27.704 173.038 27.448C172.505 27.1707 171.726 27.032 170.702 27.032C169.913 27.032 169.124 27.1173 168.334 27.288C167.566 27.4587 166.873 27.672 166.254 27.928C165.977 27.736 165.742 27.448 165.55 27.064C165.358 26.6587 165.262 26.2427 165.262 25.816C165.262 24.792 165.806 24.0667 166.894 23.64C167.513 23.4053 168.238 23.2347 169.07 23.128C169.924 23.0213 170.724 22.968 171.47 22.968ZM194.454 23.128C195.2 23.128 195.83 23.288 196.342 23.608C196.854 23.928 197.11 24.4827 197.11 25.272C197.11 25.6773 197.003 26.296 196.79 27.128C196.576 27.96 196.299 28.9093 195.958 29.976C195.616 31.0213 195.232 32.0987 194.806 33.208C194.4 34.296 193.995 35.3093 193.59 36.248C193.184 37.1867 192.822 37.944 192.502 38.52C192.224 38.7333 191.787 38.9147 191.19 39.064C190.614 39.2347 189.963 39.32 189.238 39.32C188.406 39.32 187.68 39.2133 187.062 39C186.464 38.7867 186.048 38.4453 185.814 37.976C185.579 37.528 185.291 36.8987 184.95 36.088C184.63 35.2773 184.278 34.36 183.894 33.336C183.531 32.2907 183.168 31.224 182.806 30.136C182.443 29.0267 182.102 27.96 181.782 26.936C181.483 25.912 181.248 25.016 181.078 24.248C181.376 23.9493 181.771 23.6933 182.262 23.48C182.774 23.2453 183.328 23.128 183.926 23.128C184.672 23.128 185.291 23.288 185.782 23.608C186.272 23.9067 186.624 24.4827 186.838 25.336L188.086 30.232C188.256 30.8507 188.416 31.448 188.566 32.024C188.715 32.5787 188.843 33.08 188.95 33.528C189.078 33.976 189.174 34.3493 189.238 34.648H189.398C189.803 33.0693 190.23 31.32 190.678 29.4C191.126 27.4587 191.531 25.5707 191.894 23.736C192.662 23.3307 193.515 23.128 194.454 23.128ZM204.76 28.024V31.672H199.32V27.192C199.32 26.5733 199.48 26.04 199.8 25.592C200.142 25.1227 200.579 24.7173 201.112 24.376C201.859 23.928 202.734 23.5867 203.736 23.352C204.739 23.1173 205.774 23 206.84 23C209.166 23 210.328 23.8213 210.328 25.464C210.328 25.848 210.275 26.2107 210.168 26.552C210.062 26.872 209.934 27.1493 209.784 27.384C209.571 27.3413 209.315 27.3093 209.016 27.288C208.718 27.2667 208.387 27.256 208.024 27.256C207.491 27.256 206.926 27.32 206.328 27.448C205.731 27.576 205.208 27.768 204.76 28.024ZM199.32 30.552H204.76V38.968C204.526 39.032 204.184 39.096 203.736 39.16C203.31 39.224 202.84 39.256 202.328 39.256C201.283 39.256 200.515 39.0747 200.024 38.712C199.555 38.3493 199.32 37.6773 199.32 36.696V30.552ZM218.664 35.544C219.026 35.544 219.421 35.512 219.848 35.448C220.296 35.3627 220.626 35.256 220.84 35.128V32.568L218.536 32.76C217.938 32.8027 217.448 32.9307 217.064 33.144C216.68 33.3573 216.488 33.6773 216.488 34.104C216.488 34.5307 216.648 34.8827 216.968 35.16C217.309 35.416 217.874 35.544 218.664 35.544ZM218.408 22.968C220.733 22.968 222.589 23.448 223.976 24.408C225.384 25.3467 226.088 26.8187 226.088 28.824V35.992C226.088 36.5467 225.928 37.0053 225.608 37.368C225.309 37.7093 224.946 38.008 224.52 38.264C223.837 38.6693 223.005 38.9787 222.024 39.192C221.042 39.4053 219.922 39.512 218.664 39.512C216.424 39.512 214.621 39.0853 213.256 38.232C211.912 37.3573 211.24 36.0453 211.24 34.296C211.24 32.824 211.677 31.6933 212.552 30.904C213.448 30.1147 214.802 29.624 216.616 29.432L220.808 28.984V28.76C220.808 28.1413 220.53 27.704 219.976 27.448C219.442 27.1707 218.664 27.032 217.64 27.032C216.85 27.032 216.061 27.1173 215.272 27.288C214.504 27.4587 213.81 27.672 213.192 27.928C212.914 27.736 212.68 27.448 212.488 27.064C212.296 26.6587 212.2 26.2427 212.2 25.816C212.2 24.792 212.744 24.0667 213.832 23.64C214.45 23.4053 215.176 23.2347 216.008 23.128C216.861 23.0213 217.661 22.968 218.408 22.968ZM242.534 34.36C242.534 35.9813 241.915 37.2507 240.678 38.168C239.462 39.0853 237.681 39.544 235.334 39.544C233.521 39.544 232.027 39.288 230.854 38.776C229.702 38.2427 229.126 37.4213 229.126 36.312C229.126 35.8 229.233 35.3627 229.446 35C229.659 34.6373 229.915 34.3493 230.214 34.136C230.833 34.4773 231.537 34.7867 232.326 35.064C233.137 35.32 234.065 35.448 235.11 35.448C236.475 35.448 237.158 35.096 237.158 34.392C237.158 34.0933 237.03 33.8587 236.774 33.688C236.518 33.5173 236.091 33.3787 235.494 33.272L234.534 33.08C232.699 32.7173 231.323 32.1413 230.406 31.352C229.489 30.5627 229.03 29.4533 229.03 28.024C229.03 26.424 229.681 25.176 230.982 24.28C232.283 23.384 233.979 22.936 236.07 22.936C237.115 22.936 238.065 23.0427 238.918 23.256C239.793 23.448 240.486 23.768 240.998 24.216C241.51 24.6427 241.766 25.1973 241.766 25.88C241.766 26.3493 241.67 26.7653 241.478 27.128C241.307 27.4907 241.083 27.7893 240.806 28.024C240.571 27.8747 240.198 27.7253 239.686 27.576C239.195 27.4267 238.662 27.2987 238.086 27.192C237.51 27.0853 236.998 27.032 236.55 27.032C235.846 27.032 235.302 27.1173 234.918 27.288C234.534 27.4373 234.342 27.6827 234.342 28.024C234.342 28.2587 234.449 28.4507 234.662 28.6C234.875 28.7493 235.281 28.888 235.878 29.016L236.87 29.24C238.918 29.7093 240.369 30.36 241.222 31.192C242.097 32.0027 242.534 33.0587 242.534 34.36Z" fill="white"/>
</svg>
